<svg width="574" height="715" viewBox="0 0 574 715" fill="none" xmlns="http://www.w3.org/2000/svg">
<path fill-rule="evenodd" clip-rule="evenodd" d="M359.823 675.04C277.308 711.698 187.852 671.398 124.337 607.147C47.1315 529.045 -35.3289 425.041 17.6308 328.878C72.3943 229.441 207.771 226.593 317.119 257.101C405.265 281.693 458.612 363.438 467.917 454.508C477.121 544.579 442.513 638.304 359.823 675.04Z" fill="#052016"/>
<path fill-rule="evenodd" clip-rule="evenodd" d="M157.116 525.156C111.353 447.322 141.267 353.878 197.916 283.498C266.775 197.947 360.776 104.243 462.315 145.977C567.313 189.132 585.468 323.316 567.535 435.414C553.079 525.777 477.899 588.036 388.468 607.59C300.017 626.931 202.977 603.156 157.116 525.156Z" fill="#F2C94C"/>
<line x1="76.6847" y1="363.249" x2="76.6847" y2="713.203" stroke="#B30101" stroke-width="3.59296" stroke-linecap="round" stroke-linejoin="round"/>
<rect x="59.7979" y="459.181" width="30.1809" height="255.819" fill="#FF0000"/>
<line x1="135.609" y1="316.54" x2="135.609" y2="536.43" stroke="#00790C" stroke-width="3.59296" stroke-linecap="round" stroke-linejoin="round"/>
<rect x="118.723" y="314.744" width="30.1809" height="176.774" fill="#00FF19"/>
<line x1="194.534" y1="226.716" x2="194.534" y2="349.595" stroke="#00790C" stroke-width="3.59296" stroke-linecap="round" stroke-linejoin="round"/>
<rect x="177.647" y="224.919" width="30.1809" height="90.5427" fill="#00FF19"/>
<line x1="253.459" y1="329.475" x2="253.459" y2="502.656" stroke="#B30101" stroke-width="3.59296" stroke-linecap="round" stroke-linejoin="round"/>
<rect x="236.572" y="327.678" width="30.1809" height="94.8543" fill="#FF0000"/>
<line x1="312.383" y1="291.389" x2="312.383" y2="392.711" stroke="#00790C" stroke-width="3.59296" stroke-linecap="round" stroke-linejoin="round"/>
<rect x="295.496" y="289.593" width="30.1809" height="41.6784" fill="#00FF19"/>
<line x1="430.233" y1="31.6183" x2="430.233" y2="211.267" stroke="#00790C" stroke-width="3.59296" stroke-linecap="round" stroke-linejoin="round"/>
<rect x="413.346" y="50.6611" width="30.1809" height="87.6683" fill="#00FF19"/>
<line x1="371.308" y1="108.867" x2="371.308" y2="435.827" stroke="#00790C" stroke-width="3.59296" stroke-linecap="round" stroke-linejoin="round"/>
<rect x="354.421" y="132.94" width="30.1809" height="242.166" fill="#00FF19"/>
<line x1="489.157" y1="1.79648" x2="489.157" y2="97.3693" stroke="#00790C" stroke-width="3.59296" stroke-linecap="round" stroke-linejoin="round"/>
<rect x="472.27" width="30.1809" height="71.8593" fill="#00FF19"/>
</svg>
