<svg width="500" height="507" viewBox="0 0 500 507" fill="none" xmlns="http://www.w3.org/2000/svg">
<path fill-rule="evenodd" clip-rule="evenodd" d="M296.584 447.294C244.161 470.583 187.327 444.98 146.974 404.159C97.9237 354.54 45.5345 288.463 79.181 227.369C113.973 164.194 199.982 162.384 269.453 181.767C325.454 197.391 359.347 249.325 365.259 307.184C371.106 364.409 349.119 423.954 296.584 447.294Z" fill="#052016"/>
<path fill-rule="evenodd" clip-rule="evenodd" d="M167.799 352.069C138.724 302.618 157.729 243.252 193.72 198.538C237.468 144.185 297.189 84.6526 361.699 111.167C428.407 138.584 439.942 223.835 428.548 295.053C419.363 352.463 371.6 392.017 314.782 404.441C258.588 416.729 196.935 401.624 167.799 352.069Z" fill="#F2C94C"/>
<path d="M116.699 249.205V471.539" stroke="#B30101" stroke-width="3.59296" stroke-linecap="round" stroke-linejoin="round"/>
<path d="M125.145 310.153H105.971V472.681H125.145V310.153Z" fill="#FF0000"/>
<path d="M154.135 219.53V359.231" stroke="#00790C" stroke-width="3.59296" stroke-linecap="round" stroke-linejoin="round"/>
<path d="M162.582 218.389H143.407V330.697H162.582V218.389Z" fill="#00FF19"/>
<path d="M191.572 162.462V240.53" stroke="#00790C" stroke-width="3.59296" stroke-linecap="round" stroke-linejoin="round"/>
<path d="M200.018 161.321H180.843V218.845H200.018V161.321Z" fill="#00FF19"/>
<path d="M229.008 227.748V337.774" stroke="#B30101" stroke-width="3.59296" stroke-linecap="round" stroke-linejoin="round"/>
<path d="M237.454 226.606H218.279V286.869H237.454V226.606Z" fill="#FF0000"/>
<path d="M266.444 203.551V267.923" stroke="#00790C" stroke-width="3.59296" stroke-linecap="round" stroke-linejoin="round"/>
<path d="M274.89 202.41H255.715V228.889H274.89V202.41Z" fill="#00FF19"/>
<path d="M341.317 38.5122V152.647" stroke="#00790C" stroke-width="3.59296" stroke-linecap="round" stroke-linejoin="round"/>
<path d="M349.763 50.6104H330.588V106.308H349.763V50.6104Z" fill="#00FF19"/>
<path d="M303.881 87.5898V295.315" stroke="#00790C" stroke-width="3.59296" stroke-linecap="round" stroke-linejoin="round"/>
<path d="M312.326 102.884H293.152V256.738H312.326V102.884Z" fill="#00FF19"/>
<path d="M378.752 19.5659V80.2854" stroke="#00790C" stroke-width="3.59296" stroke-linecap="round" stroke-linejoin="round"/>
<path d="M387.199 18.4243H368.024V64.0783H387.199V18.4243Z" fill="#00FF19"/>
</svg>
