<svg width="1440" height="290" viewBox="0 0 1440 290" fill="none" xmlns="http://www.w3.org/2000/svg">
<path fill-rule="evenodd" clip-rule="evenodd" d="M0 107.123L159 155.09C219 155.09 360 41.992 360 41.992C503 41.9918 600 95.1312 720 107.123C840 119.115 987 6.00823 1107 18C1227 29.9918 1320 155.09 1380 149.094L1440 143.098V287H1380C1320 287 1200 287 1080 287C960 287 840 287 720 287C600 287 480 287 360 287C240 287 120 287 60 287H0V107.123Z" fill="#160D1B"/>
<path fill-rule="evenodd" clip-rule="evenodd" d="M-6 170L33 206L89 0L211 194.333L331 108L499 136L717 316L958 218.667L1073 108L1155 90L1209 170L1323 150L1440 243V316L1199 316L958 316L717 316L476 316L235 316L-6 316L-6 170Z" fill="#18281A" fill-opacity="0.5"/>
</svg>
