<svg width="1440" height="486" viewBox="0 0 1440 486" fill="none" xmlns="http://www.w3.org/2000/svg">
<g id="Group 49">
<path id="Vector" fill-rule="evenodd" clip-rule="evenodd" d="M3 306.015L43 204L185 248C245 248 399 0 399 0C542 -0.000129223 603 294.023 723 306.015C843 318.007 1011 112.008 1131 124C1251 135.992 1349 285.996 1409 280L1443 341.99V485.892H1383C1323 485.892 1203 485.892 1083 485.892C963 485.892 843 485.892 723 485.892C603 485.892 483 485.892 363 485.892C243 485.892 123 485.892 63 485.892H3V306.015Z" fill="#160D1B"/>
<path id="Vector_2" fill-rule="evenodd" clip-rule="evenodd" d="M0 340L39 376L143 413L203 306L403 388.667L505 306L723 486L964 388.667L1071 413L1145 274L1191 306L1241 204L1315 340L1375 306L1446 413V486L1205 486L964 486L723 486L482 486L241 486L0 486L0 340Z" fill="#18281A" fill-opacity="0.5"/>
</g>
</svg>
