<svg width="68" height="69" viewBox="0 0 68 69" fill="none" xmlns="http://www.w3.org/2000/svg">
<g filter="url(#filter0_dd)">
<circle cx="34" cy="34.5" r="20" fill="#0B0B0B"/>
</g>
<path d="M34 19.5C25.7156 19.5 19 26.2156 19 34.5C19 42.7844 25.7156 49.5 34 49.5C42.2844 49.5 49 42.7844 49 34.5C49 26.2156 42.2844 19.5 34 19.5ZM40.1016 31.7875C40.1078 31.9156 40.1094 32.0437 40.1094 32.1687C40.1094 36.075 37.1391 40.5766 31.7047 40.5766C30.0989 40.5792 28.5265 40.118 27.1766 39.2484C27.4062 39.2766 27.6422 39.2875 27.8812 39.2875C29.2656 39.2875 30.5391 38.8172 31.55 38.0234C30.9339 38.0113 30.337 37.8073 29.8424 37.4399C29.3477 37.0724 28.9801 36.5598 28.7906 35.9734C29.2331 36.0576 29.6888 36.0399 30.1234 35.9219C29.4548 35.7867 28.8534 35.4243 28.4214 34.8963C27.9894 34.3684 27.7533 33.7072 27.7531 33.025V32.9891C28.1516 33.2094 28.6078 33.3438 29.0922 33.3594C28.4653 32.9421 28.0215 32.301 27.8516 31.5674C27.6817 30.8337 27.7985 30.0629 28.1781 29.4125C28.9202 30.325 29.8457 31.0715 30.8946 31.6036C31.9436 32.1357 33.0925 32.4417 34.2672 32.5016C34.1178 31.8677 34.1821 31.2022 34.45 30.6086C34.7179 30.015 35.1744 29.5265 35.7485 29.2192C36.3227 28.9118 36.9823 28.8027 37.6248 28.9089C38.2674 29.015 38.8568 29.3305 39.3016 29.8062C39.9628 29.6754 40.5968 29.4329 41.1766 29.0891C40.9562 29.7736 40.4948 30.355 39.8781 30.725C40.4638 30.6545 41.0357 30.497 41.575 30.2578C41.1789 30.8514 40.6799 31.3694 40.1016 31.7875Z" fill="#FF7A00"/>
<defs>
<filter id="filter0_dd" x="0" y="0.5" width="68" height="68" filterUnits="userSpaceOnUse" color-interpolation-filters="sRGB">
<feFlood flood-opacity="0" result="BackgroundImageFix"/>
<feColorMatrix in="SourceAlpha" type="matrix" values="0 0 0 0 0 0 0 0 0 0 0 0 0 0 0 0 0 0 127 0"/>
<feOffset dx="4" dy="4"/>
<feGaussianBlur stdDeviation="5"/>
<feColorMatrix type="matrix" values="0 0 0 0 0 0 0 0 0 0 0 0 0 0 0 0 0 0 1 0"/>
<feBlend mode="normal" in2="BackgroundImageFix" result="effect1_dropShadow"/>
<feColorMatrix in="SourceAlpha" type="matrix" values="0 0 0 0 0 0 0 0 0 0 0 0 0 0 0 0 0 0 127 0"/>
<feOffset dx="-4" dy="-4"/>
<feGaussianBlur stdDeviation="5"/>
<feColorMatrix type="matrix" values="0 0 0 0 0.154167 0 0 0 0 0.150312 0 0 0 0 0.150312 0 0 0 1 0"/>
<feBlend mode="normal" in2="effect1_dropShadow" result="effect2_dropShadow"/>
<feBlend mode="normal" in="SourceGraphic" in2="effect2_dropShadow" result="shape"/>
</filter>
</defs>
</svg>
