<svg width="68" height="68" viewBox="0 0 68 68" fill="none" xmlns="http://www.w3.org/2000/svg">
<g filter="url(#filter0_dd)">
<circle cx="34" cy="34" r="20" fill="#0B0B0B"/>
</g>
<path d="M34.5 17C24.8349 17 17 24.8349 17 34.5C17 44.1651 24.8349 52 34.5 52C44.1651 52 52 44.1651 52 34.5C52 24.8349 44.1651 17 34.5 17ZM30.2161 41.7534H26.6724V30.3492H30.2161V41.7534ZM28.4224 28.9492C27.3031 28.9492 26.5794 28.1562 26.5794 27.1755C26.5794 26.1747 27.325 25.4055 28.468 25.4055C29.6109 25.4055 30.3109 26.1747 30.3328 27.1755C30.3328 28.1562 29.6109 28.9492 28.4224 28.9492ZM43.1589 41.7534H39.6151V35.4333C39.6151 33.9622 39.101 32.9633 37.8195 32.9633C36.8406 32.9633 36.2591 33.6396 36.0021 34.2904C35.9073 34.5219 35.8836 34.85 35.8836 35.1763V41.7516H32.338V33.9859C32.338 32.5622 32.2924 31.3719 32.2451 30.3474H35.324L35.4862 31.9315H35.5573C36.024 31.1878 37.1669 30.0904 39.0792 30.0904C41.4107 30.0904 43.1589 31.6526 43.1589 35.0104V41.7534Z" fill="#FF7A00"/>
<defs>
<filter id="filter0_dd" x="0" y="0" width="68" height="68" filterUnits="userSpaceOnUse" color-interpolation-filters="sRGB">
<feFlood flood-opacity="0" result="BackgroundImageFix"/>
<feColorMatrix in="SourceAlpha" type="matrix" values="0 0 0 0 0 0 0 0 0 0 0 0 0 0 0 0 0 0 127 0"/>
<feOffset dx="4" dy="4"/>
<feGaussianBlur stdDeviation="5"/>
<feColorMatrix type="matrix" values="0 0 0 0 0 0 0 0 0 0 0 0 0 0 0 0 0 0 1 0"/>
<feBlend mode="normal" in2="BackgroundImageFix" result="effect1_dropShadow"/>
<feColorMatrix in="SourceAlpha" type="matrix" values="0 0 0 0 0 0 0 0 0 0 0 0 0 0 0 0 0 0 127 0"/>
<feOffset dx="-4" dy="-4"/>
<feGaussianBlur stdDeviation="5"/>
<feColorMatrix type="matrix" values="0 0 0 0 0.154167 0 0 0 0 0.150312 0 0 0 0 0.150312 0 0 0 1 0"/>
<feBlend mode="normal" in2="effect1_dropShadow" result="effect2_dropShadow"/>
<feBlend mode="normal" in="SourceGraphic" in2="effect2_dropShadow" result="shape"/>
</filter>
</defs>
</svg>
