<svg width="43" height="43" viewBox="0 0 43 43" fill="none" xmlns="http://www.w3.org/2000/svg">
<path d="M21.8125 0C10.1296 0 0.625 9.50458 0.625 21.1875C0.625 32.8704 10.1296 42.375 21.8125 42.375C33.4954 42.375 43 32.8704 43 21.1875C43 9.50458 33.4954 0 21.8125 0ZM30.6406 32.5129L24.6651 26.5373C22.6679 27.9117 20.2292 28.49 17.8276 28.1588C15.4259 27.8277 13.2347 26.611 11.684 24.7475C10.1332 22.884 9.33486 20.5082 9.44555 18.0864C9.55623 15.6646 10.568 13.3715 12.2823 11.6573C13.9965 9.94299 16.2896 8.93123 18.7114 8.82055C21.1332 8.70986 23.509 9.50823 25.3725 11.059C27.236 12.6097 28.4527 14.8009 28.7838 17.2026C29.115 19.6042 28.5367 22.0429 27.1623 24.0401L33.1379 30.0156L30.6406 32.5129Z" fill="#56CCF2"/>
<path d="M19.1641 24.7188C22.577 24.7188 25.3438 21.952 25.3438 18.5391C25.3438 15.1261 22.577 12.3594 19.1641 12.3594C15.7511 12.3594 12.9844 15.1261 12.9844 18.5391C12.9844 21.952 15.7511 24.7188 19.1641 24.7188Z" fill="#56CCF2"/>
</svg>
