<svg width="68" height="69" viewBox="0 0 68 69" fill="none" xmlns="http://www.w3.org/2000/svg">
<g filter="url(#filter0_dd)">
<circle cx="34" cy="34.5" r="20" fill="#0B0B0B"/>
</g>
<path d="M34.5 17.5C24.8348 17.5 17 25.3348 17 35C17 43.7343 23.3997 50.974 31.7665 52.2882V40.0575H27.3215V35H31.7665V31.1447C31.7665 26.7592 34.3775 24.3373 38.3763 24.3373C40.2908 24.3373 42.2927 24.6785 42.2927 24.6785V28.9835H40.0877C37.9125 28.9835 37.2352 30.3327 37.2352 31.717V35H42.088L41.3127 40.0575H37.2352V52.2882C45.6003 50.9757 52 43.7325 52 35C52 25.3348 44.1652 17.5 34.5 17.5Z" fill="#FF7A00"/>
<defs>
<filter id="filter0_dd" x="0" y="0.5" width="68" height="68" filterUnits="userSpaceOnUse" color-interpolation-filters="sRGB">
<feFlood flood-opacity="0" result="BackgroundImageFix"/>
<feColorMatrix in="SourceAlpha" type="matrix" values="0 0 0 0 0 0 0 0 0 0 0 0 0 0 0 0 0 0 127 0"/>
<feOffset dx="4" dy="4"/>
<feGaussianBlur stdDeviation="5"/>
<feColorMatrix type="matrix" values="0 0 0 0 0 0 0 0 0 0 0 0 0 0 0 0 0 0 1 0"/>
<feBlend mode="normal" in2="BackgroundImageFix" result="effect1_dropShadow"/>
<feColorMatrix in="SourceAlpha" type="matrix" values="0 0 0 0 0 0 0 0 0 0 0 0 0 0 0 0 0 0 127 0"/>
<feOffset dx="-4" dy="-4"/>
<feGaussianBlur stdDeviation="5"/>
<feColorMatrix type="matrix" values="0 0 0 0 0.154167 0 0 0 0 0.150312 0 0 0 0 0.150312 0 0 0 1 0"/>
<feBlend mode="normal" in2="effect1_dropShadow" result="effect2_dropShadow"/>
<feBlend mode="normal" in="SourceGraphic" in2="effect2_dropShadow" result="shape"/>
</filter>
</defs>
</svg>
