<svg width="45" height="45" viewBox="0 0 45 45" fill="none" xmlns="http://www.w3.org/2000/svg">
<g id="zondicons:explore" clip-path="url(#clip0)">
<path id="Vector" d="M22.5 45C16.5326 45 10.8097 42.6295 6.5901 38.4099C2.37053 34.1903 0 28.4674 0 22.5C0 16.5326 2.37053 10.8097 6.5901 6.5901C10.8097 2.37053 16.5326 0 22.5 0C28.4674 0 34.1903 2.37053 38.4099 6.5901C42.6295 10.8097 45 16.5326 45 22.5C45 28.4674 42.6295 34.1903 38.4099 38.4099C34.1903 42.6295 28.4674 45 22.5 45ZM17.73 17.73L9.765 35.235L27.27 27.27L35.235 9.765L17.73 17.73ZM22.5 24.75C21.9033 24.75 21.331 24.5129 20.909 24.091C20.4871 23.669 20.25 23.0967 20.25 22.5C20.25 21.9033 20.4871 21.331 20.909 20.909C21.331 20.4871 21.9033 20.25 22.5 20.25C23.0967 20.25 23.669 20.4871 24.091 20.909C24.5129 21.331 24.75 21.9033 24.75 22.5C24.75 23.0967 24.5129 23.669 24.091 24.091C23.669 24.5129 23.0967 24.75 22.5 24.75Z" fill="#FFC000"/>
</g>
<defs>
<clipPath id="clip0">
<rect width="45" height="45" fill="white"/>
</clipPath>
</defs>
</svg>
